<?xml version="1.0" encoding="utf-8"?>
<!-- Generator: Adobe Illustrator 23.0.3, SVG Export Plug-In . SVG Version: 6.00 Build 0)  -->
<svg version="1.1" id="レイヤー_1" xmlns="http://www.w3.org/2000/svg" xmlns:xlink="http://www.w3.org/1999/xlink" x="0px"
	 y="0px" viewBox="0 0 275.5 221.3" style="enable-background:new 0 0 275.5 221.3;" xml:space="preserve">
<style type="text/css">
	.st0{fill:#FFFFFF;stroke:#000000;stroke-width:1.0977;stroke-miterlimit:10;}
	.st1{fill:#FFFFFF;}
	.st2{fill:none;}
	.st3{fill:#F7F8F8;}
	.st4{fill:none;stroke:#000000;stroke-width:1.8824;}
	.st5{fill:none;stroke:#000000;stroke-width:2.1261;}
</style>
<g>
	<rect x="0.5" y="0.5" class="st0" width="274.4" height="220.1"/>
	<g>
		<rect x="0.5" y="183.3" width="274.4" height="37.4"/>
		<g>
			<path class="st1" d="M70.6,195.2h-7.7v5.3h7v1.9h-7v8h-2.4v-17.1l10.1,0V195.2z"/>
			<path class="st1" d="M85.6,210.4h-2.3l-1.4-4.4h-6.4l-1.4,4.4h-2.4l5.7-17.1h2.4L85.6,210.4z M81.3,204.1l-2.6-8.1l-2.6,8.1H81.3
				z"/>
			<path class="st1" d="M98.9,205v0.5c0,2.9-2.4,5.3-5.3,5.3h-0.1c-2.9,0-5.3-2.4-5.3-5.3v-7.4c0-2.9,2.4-5.3,5.3-5.3h0.1
				c2.9,0,5.3,2.4,5.3,5.3v0.4h-2.3v-0.8c0-1.6-1.3-2.9-2.9-2.9h-0.1c-1.6,0-2.9,1.3-2.9,2.9v8.3c0,1.6,1.3,2.9,2.9,2.9h0.1
				c1.6,0,2.9-1.3,2.9-2.9V205H98.9z"/>
			<path class="st1" d="M112.7,195.2h-4.1v15.2h-2.5v-15.2H102v-1.9h10.7V195.2z"/>
			<path class="st1" d="M125.7,205.5c0,1.5-0.5,2.7-1.5,3.8c-1,1-2.3,1.5-3.7,1.5h-0.1c-1.5,0-2.7-0.5-3.8-1.5c-1-1-1.5-2.3-1.5-3.8
				v-7.4c0-1.5,0.5-2.7,1.5-3.8c1-1,2.3-1.5,3.8-1.5h0.1c1.4,0,2.7,0.5,3.7,1.5c1,1,1.5,2.3,1.5,3.8V205.5z M123.3,197.7
				c0-0.8-0.3-1.5-0.9-2.1c-0.6-0.6-1.3-0.9-2.1-0.9h-0.1c-0.8,0-1.5,0.3-2.1,0.9c-0.6,0.6-0.8,1.3-0.8,2.1v8.2
				c0,0.8,0.3,1.5,0.8,2.1c0.6,0.6,1.3,0.9,2.1,0.9h0.1c0.8,0,1.5-0.3,2.1-0.9c0.6-0.6,0.9-1.3,0.9-2.1V197.7z"/>
			<path class="st1" d="M141.2,210.4h-2.6l-3.3-7.4c-0.2,0-0.4,0-0.6,0l-2.4-0.2v7.6H130v-16.9l6-0.2h0c2.6,0,4.6,1.9,4.7,4.5v0
				c0,2.2-1.4,4-3.2,4.7L141.2,210.4z M138.4,197.8c0-1.3-1.1-2.5-2.3-2.6h0l-3.6,0.1v5.5l2.4,0.2c0.3,0,0.6,0,0.8,0
				C137.2,200.8,138.4,199.3,138.4,197.8L138.4,197.8z"/>
			<path class="st1" d="M154.9,193.3l-4.6,10v7.1h-2.4v-7.1l-4.6-10h2.7l3.1,7.6l3.1-7.6H154.9z"/>
			<path class="st1" d="M174.6,210.4H165v-17.1h2.4v15.2h7.2V210.4z"/>
			<path class="st1" d="M181.2,210.4h-2.5v-17.1h2.5V210.4z"/>
			<path class="st1" d="M196.9,210.4L196.9,210.4h-2.3h-0.5l-3.7-8.6l-2.1-5l0.2,5.1v8.5h-2.4v-17.1h0.1h2.2h0.4l3.7,8.5l2,5.1
				l-0.2-5v-8.6h2.3V210.4z"/>
			<path class="st1" d="M211.5,210.4h-10.1v-17.1l10.1,0v1.9h-7.7v5.3h7v1.9h-7v6h7.7V210.4z"/>
		</g>
	</g>
	<rect x="0.5" y="0.5" class="st2" width="274.4" height="220.7"/>
	<g>
		<g>
			<path d="M80.6,80.5H12.3V12.3h68.2V80.5z M14.8,78h63.2V14.8H14.8V78z"/>
			<g>
				<path d="M25.2,52.5h6.5v2.6h-4.3v5.7h3.8v2.6h-3.8v5.7h4.3v2.8h-6.5V52.5z"/>
				<path d="M34,52.5h2.2v8.3h2.7v-8.3H41v19.4h-2.2v-8.6h-2.7v8.6H34V52.5z"/>
				<path d="M44,52.5h2.2v19.4H44V52.5z"/>
				<path d="M49.2,52.5h2.1l2.8,10.3h0l2.8-10.3H59v19.4h-2.2V60.1h0l-2.2,8.3h-1.1l-2.1-8.3h0v11.8h-2.2V52.5z"/>
				<path d="M62,52.5h6.5v2.6h-4.3v5.7h3.8v2.6h-3.8v5.7h4.3v2.8H62V52.5z"/>
				<g>
					<path d="M36.5,21.3h1.8l3.4,19.4h-2.2l-0.6-4.2h-3l-0.6,4.2h-2.2L36.5,21.3z M37.4,26.9L37.4,26.9l-1.1,7h2.2L37.4,26.9z"/>
					<path d="M43.3,21.3h3.3c0.6,0,1.1,0.1,1.6,0.3c0.5,0.2,0.9,0.6,1.2,1.1c0.4,0.5,0.6,1.1,0.8,1.8c0.1,0.7,0.2,1.6,0.2,2.8
						c0,0.9,0,1.6-0.1,2.2c-0.1,0.6-0.2,1.2-0.5,1.7c-0.3,0.6-0.7,1.1-1.2,1.5c-0.5,0.4-1.2,0.5-2,0.5h-1.1v7.6h-2.2V21.3z
						 M45.5,30.5h1c0.4,0,0.8-0.1,1-0.2c0.2-0.2,0.4-0.4,0.5-0.7s0.2-0.6,0.2-1c0-0.4,0-0.8,0-1.3c0-0.5,0-0.9,0-1.3
						c0-0.4-0.1-0.8-0.2-1.1c-0.1-0.3-0.3-0.5-0.5-0.7c-0.2-0.2-0.6-0.3-1-0.3h-1.1V30.5z"/>
					<path d="M54.1,21.3h1.8l3.4,19.4h-2.2l-0.6-4.2h-3l-0.6,4.2h-2.2L54.1,21.3z M55,26.9L55,26.9l-1.1,7h2.2L55,26.9z"/>
					<path d="M60.8,21.3h2.1L66.2,33h0V21.3h2.2v19.4h-2L63,29h0v11.7h-2.2V21.3z"/>
					<path d="M29.4,21.3v14.8c0,0.7-0.1,1.2-0.4,1.5c-0.3,0.3-0.6,0.5-1,0.5c-0.4,0-0.7-0.2-1-0.5c-0.2-0.2-0.3-0.6-0.4-1.1h-2.2
						c0,0.6,0.1,1.1,0.3,1.6c0.2,0.5,0.4,1,0.8,1.4c0.3,0.4,0.7,0.7,1.1,1c0.4,0.2,0.9,0.4,1.4,0.4c0.5,0,0.9-0.1,1.4-0.4
						c0.4-0.2,0.8-0.6,1.1-1c0.3-0.4,0.6-0.9,0.8-1.4c0.2-0.5,0.3-1.1,0.3-1.8v-15H29.4z"/>
				</g>
				<rect x="22.9" y="44.8" width="47.7" height="2.5"/>
			</g>
		</g>
		<rect x="0.5" y="0.5" class="st2" width="91.5" height="91.4"/>
	</g>
	<g>
		<g>
			<path d="M10.9,160.7c0.4-1.5,0.8-3,1.2-4.7c3,0.6,5.9,1.2,9,1.8c-0.4,1.8-0.7,3.4-1,5.1c-3.1-0.6-6.1-1.1-9.1-1.7
				C10.9,161.1,10.9,160.9,10.9,160.7z"/>
			<path d="M82.3,156c-3,0.6-6.1,1.3-9.1,1.9c0.4,1.8,0.7,3.4,1.1,5c0.5-0.1,0.9-0.1,1.3-0.2c2.6-0.5,5.4-1.1,8-1.6L82.3,156z"/>
			<path d="M46,107c-1.8,2.3-3.5,4.6-5.3,7.1c-0.3-0.4-0.5-0.7-0.6-1c-0.7-1.4-1.3-2.9-2.2-4.1c-1.7-2.3-1.4-4.7-0.8-7.1
				c0.2-0.7,0.9-1.5,1.6-1.7c5.6-1.8,11.3-1.7,17,0c0.5,0.1,1.1,0.5,1.2,0.9c0.6,2,1.5,4,0.5,6.1c-1.1,2.3-2.3,4.6-3.6,7.1
				c-1.9-2.5-3.6-4.8-5.4-7.2c1.8-0.8,3.6-1.5,5.2-2.4c0.7-0.4,1.2-1.3,1.8-1.9c-0.7-0.5-1.3-1.3-2.1-1.5c-4.1-1.2-8.2-1.2-12.3,0
				c-0.8,0.2-1.4,1-2.1,1.5c0.6,0.7,1.1,1.5,1.8,1.9C42.4,105.5,44.1,106.2,46,107z"/>
			<path class="st1" d="M47.2,116.5c0.6,0.8,1.3,1.3,1.2,1.7c-0.1,0.5-0.8,0.9-1.3,1.4c-0.4-0.5-1.1-0.9-1.2-1.4
				C45.9,117.8,46.6,117.3,47.2,116.5z"/>
			<path class="st1" d="M47.1,127c0.6,0.8,1.3,1.3,1.3,1.7c-0.1,0.5-0.8,1-1.2,1.4c-0.5-0.4-1.1-0.8-1.3-1.4
				C45.8,128.3,46.5,127.8,47.1,127z"/>
			<path d="M28.1,125.7c0,0.6,0,1.1,0,1.7c0,10.5,0,36.9,0,47.4H43c0-15.1,0-46.1,0-61.4c-0.9,1.2-1.7,2.1-2.6,3.3
				c-1.8-3.5-3.5-6.8-5.3-10.2c-3.2,1.5-6.4,2.9-9.5,4.5c-3.1,1.6-4.9,4.2-5.6,7.7c-1.1,5.6-2.4,11.2-3.6,16.8
				c-1.3,6.3-2.7,12.7-4,19.1c2.8,0.6,6.3,1.3,9.1,1.8L28.1,125.7"/>
			<path d="M66.2,125.7c0,11,0,37.9,0,49H44.6c0-14.9,0-45.7-0.1-60.6c0-2.6,0.7-4.5,2.7-6.3c2.2,2.9,4.3,5.7,6.6,8.8
				c1.8-3.5,3.5-6.8,5.4-10.4c3.8,2,7.7,3.7,11.2,5.9c3,1.9,3.7,5.3,4.3,8.6c2.3,11.1,4.7,22.3,7.1,33.4c0,0.1,0,0.1,0.1,0.4
				c-2.7,0.6-6.2,1.5-9,2L66.2,125.7z"/>
		</g>
		<g>
			<rect x="46.2" y="111.5" transform="matrix(0.7075 0.7068 -0.7068 0.7075 93.6408 -0.6)" class="st3" width="2.6" height="2.6"/>
			
				<rect x="46.2" y="121.5" transform="matrix(0.7075 0.7068 -0.7068 0.7075 100.7048 2.324)" class="st3" width="2.6" height="2.6"/>
			
				<rect x="46.2" y="131.5" transform="matrix(0.7075 0.7068 -0.7068 0.7075 107.7689 5.248)" class="st3" width="2.6" height="2.6"/>
			
				<rect x="46.2" y="141.5" transform="matrix(0.7075 0.7068 -0.7068 0.7075 114.8329 8.1719)" class="st3" width="2.6" height="2.6"/>
			
				<rect x="46.2" y="151.5" transform="matrix(0.7075 0.7068 -0.7068 0.7075 121.897 11.0959)" class="st3" width="2.6" height="2.6"/>
			
				<rect x="46.2" y="161.5" transform="matrix(0.7075 0.7068 -0.7068 0.7075 128.961 14.0199)" class="st3" width="2.6" height="2.6"/>
		</g>
		<rect x="0.5" y="91.9" class="st2" width="91.5" height="91.4"/>
	</g>
	<g>
		<g>
			<path d="M171.8,59.8c0-4-2.2-6.2-6.3-6.2c-1.7,0-3.3,0-5,0c0-0.1-0.6-4.1-1-7.5c-0.2-1.6-0.4-3.1-0.4-3.9c-0.1-2.4-0.2-6-0.2-6
				s0.1,0,0.3,0c0.2,0,0.5-0.1,0.8-0.1c0.5,0,1,0,1.4,0.1c0.2,0.1,0.5,0.2,0.6,0.3c0.2,0.3,0.6,0.7,0.9,1.3c0.5,0.7,1,1.5,1.3,1.9
				c0.2,0.3,0.3,0.4,0.3,0.4s0.1-0.2,0.2-0.5c0.4-0.8,1.2-2.5,1.9-4.9c0.5-1.9,0.9-4.2,0.9-6.8c0-1-0.1-1.9-0.1-2.7
				c-0.4-4.9-1.8-8-2.4-9.3c-0.2-0.4-0.3-0.6-0.3-0.6s0,0.1-0.1,0.2c-0.3,0.5-1.1,1.7-1.7,2.5c-0.2,0.2-0.3,0.4-0.4,0.5
				c-0.4,0.5-0.8,0.7-1.2,0.8c-0.3,0-0.6,0-0.9,0c0,0,0,0,0,0c-1-0.2-2-1-3.4-1.3c-2.1-0.4-5.1,0-5.1,0v-5.6h-1.4v6
				c0,0-2.8,0.6-6.4,1.4c-5.8,1.2-13.4,2.8-14.2,2.9c-0.5,0-1.4,0.1-2.5,0.2c-0.8,0-1.6,0-2.4,0c-1.3-0.1-2.6-0.4-3.2-1
				c-0.1-0.1-0.1-0.1-0.2-0.2c-1.1-1.1-2.1-2.6-2.6-3.8c-0.2-0.4-0.4-0.8-0.5-1.1c-0.1-0.3-0.2-0.6-0.3-0.8
				c-0.2-0.8-0.4-1.5-0.4-1.5l-3.7,0v-2.1h-0.2c-0.4-0.1-0.8,0-1.2,0c0,0.3,0,0.5,0,0.8v1.3l-3.3,0v28.2h2h0v1.1v1.8h1.2h0.1v1v3.4
				h0.7v-3.3v-1.1h0.1h1.2v-2.9h1.2c0,0,0-0.8,0.3-2c0.1-0.6,0.3-1.4,0.6-2.2c1-2.9,3.1-6.2,7.7-6.6c0.3,0,0.5-0.1,0.8-0.1
				c9,0,11.9,0,11.9,0s0.6,0,1.5,0c1.6,0.1,4,0.4,6,1.8c1.9,1.3,3.3,3.5,2.9,7.3c-0.2,1.4-0.6,3.1-1.4,5c0,0.1-0.1,0.2-0.1,0.4
				c-1.4,3.2-2.8,5.6-4.1,7.3h-0.8h-16.5v0c-4.9,0-9.9,0-14.8,0c-3.7,0-5.9,2.3-5.9,6c0,3,0,16.6,0,19.6c0,0.4,0,0.9,0.1,1.4
				c22.8,0,45.4,0,68.1,0C171.8,77.2,171.8,63.2,171.8,59.8z"/>
			<g>
				<path class="st3" d="M119.6,68.9v-1.8h4.7v4.3c-0.5,0.4-1.1,0.8-2,1.2c-0.9,0.3-1.7,0.5-2.6,0.5c-1.1,0-2.1-0.2-3-0.7
					c-0.8-0.5-1.5-1.2-1.9-2c-0.4-0.9-0.6-1.8-0.6-2.9c0-1.1,0.2-2.1,0.7-3c0.5-0.9,1.2-1.5,2.1-2c0.7-0.4,1.6-0.5,2.6-0.5
					c1.3,0,2.4,0.3,3.1,0.8c0.8,0.6,1.2,1.3,1.5,2.3l-2.2,0.4c-0.2-0.5-0.4-0.9-0.9-1.3c-0.4-0.3-0.9-0.5-1.6-0.5
					c-1,0-1.7,0.3-2.3,0.9c-0.6,0.6-0.8,1.5-0.8,2.7c0,1.3,0.3,2.2,0.9,2.9c0.6,0.6,1.3,1,2.2,1c0.5,0,0.9-0.1,1.4-0.3
					c0.5-0.2,0.9-0.4,1.2-0.7v-1.4H119.6z"/>
				<path class="st3" d="M127,62.1h2.2v5.9c0,0.9,0,1.5,0.1,1.8c0.1,0.4,0.3,0.8,0.7,1.1c0.4,0.3,0.8,0.4,1.4,0.4
					c0.6,0,1.1-0.1,1.4-0.4c0.3-0.3,0.5-0.6,0.6-0.9c0.1-0.4,0.1-1,0.1-1.8v-6h2.2v5.7c0,1.3-0.1,2.2-0.2,2.7
					c-0.1,0.5-0.3,1-0.7,1.4c-0.3,0.4-0.7,0.7-1.3,0.9c-0.5,0.2-1.2,0.3-2.1,0.3c-1,0-1.8-0.1-2.3-0.4c-0.5-0.2-1-0.5-1.3-0.9
					c-0.3-0.4-0.5-0.8-0.6-1.2c-0.1-0.6-0.2-1.5-0.2-2.7V62.1z"/>
				<path class="st3" d="M138.7,72.9V62.1h2.2v10.8H138.7z"/>
				<path class="st3" d="M143.7,72.9V62.2h2.2v8.9h5.4v1.8H143.7z"/>
				<path class="st3" d="M153.7,62.1h4c0.9,0,1.6,0.1,2.1,0.2c0.6,0.2,1.2,0.5,1.6,1s0.8,1.1,1,1.8c0.2,0.7,0.4,1.5,0.4,2.6
					c0,0.9-0.1,1.7-0.3,2.3c-0.3,0.8-0.7,1.4-1.2,1.9c-0.4,0.4-0.9,0.7-1.5,0.9c-0.5,0.2-1.1,0.2-1.9,0.2h-4.1V62.1z M155.8,63.9
					v7.2h1.6c0.6,0,1,0,1.3-0.1c0.4-0.1,0.6-0.2,0.9-0.5c0.2-0.2,0.4-0.6,0.6-1c0.1-0.5,0.2-1.1,0.2-2c0-0.8-0.1-1.5-0.2-1.9
					c-0.1-0.4-0.4-0.8-0.6-1c-0.3-0.3-0.6-0.4-1-0.5c-0.3-0.1-0.9-0.1-1.8-0.1H155.8z"/>
			</g>
		</g>
		<rect x="92" y="0.5" class="st2" width="91.5" height="91.4"/>
	</g>
	<g>
		<g>
			<path class="st2" d="M246.5,157.5c-0.1-0.5-0.6-0.9-1.1-0.8l-6.1,1.4c-0.5,0.1-0.9,0.4-1.1,0.9l-4.7,10H246l0.7-8.9
				c0-0.2,0-0.4,0-0.6L246.5,157.5z"/>
			<path class="st2" d="M198.1,137.7V169h33.8l3.7-8c0.2-0.4,0.2-0.8,0.2-1.3l-0.4-1.9c-0.1-0.6-0.5-1.2-1-1.5l-3.6-2.3
				c-0.9-0.6-2.5-2.3-3.1-3.8c0,0-1.5-2.9-1.8-8.9c-0.2-3.5,0.6-11.3,0.6-11.3c0-0.4-0.2-0.8-0.5-1.1l-5.2-4.2l4.8,0.9
				c0,0,2.1-0.9,4.5-0.9c2.4,0,6.5,0.9,11.1,6.8c4.5,6,5.5,7.2,5.5,7.2l3.5,5.3c0.3,0.4,0.8,0.7,1.3,0.6l6.5-0.7
				c0.7-0.1,1.3,0.1,1.8,0.6l0.6,0.5c0.5,0.4,0.4,1.3-0.2,1.5l-5.8,2.6c-0.5,0.2-0.8,0.8-0.7,1.4l0.9,3.6c0.1,0.4-0.4,0.7-0.7,0.4
				l-1.9-1.8c-0.3-0.3-0.9-0.2-1,0.3l-0.4,1.2c-0.1,0.4-0.5,0.8-0.9,1l-0.8,0.3c-0.3,0.2-0.6,0.5-0.6,0.8l-1,12.6h13.3v-62.4h-31.3
				L198.1,137.7z"/>
			<path d="M195.2,103.7v68.2h68.3v-68.2H195.2z M246,169h-12.5l4.7-10c0.2-0.5,0.6-0.8,1.1-0.9l6.1-1.4c0.5-0.1,1.1,0.3,1.1,0.8
				l0.2,1.9c0,0.2,0,0.4,0,0.6L246,169z M260.6,169h-13.3l1-12.6c0-0.4,0.3-0.7,0.6-0.8l0.8-0.3c0.4-0.2,0.7-0.5,0.9-1l0.4-1.2
				c0.1-0.4,0.7-0.6,1-0.3l1.9,1.8c0.3,0.3,0.8,0,0.7-0.4l-0.9-3.6c-0.1-0.6,0.1-1.1,0.7-1.4l5.8-2.6c0.6-0.3,0.7-1.1,0.2-1.5
				l-0.6-0.5c-0.5-0.4-1.2-0.6-1.8-0.6l-6.5,0.7c-0.5,0.1-1-0.2-1.3-0.6l-3.5-5.3c0,0-0.9-1.2-5.5-7.2c-4.5-6-8.7-6.8-11.1-6.8
				c-2.4,0-4.5,0.9-4.5,0.9l-4.8-0.9l5.2,4.2c0.3,0.3,0.5,0.7,0.5,1.1c0,0-0.7,7.8-0.6,11.3c0.3,6,1.8,8.9,1.8,8.9
				c0.6,1.5,2.2,3.2,3.1,3.8l3.6,2.3c0.5,0.4,0.9,0.9,1,1.5l0.4,1.9c0.1,0.4,0,0.9-0.2,1.3l-3.7,8h-33.8v-31.2l31.2-31.1h31.3V169z"
				/>
		</g>
		<rect x="183.5" y="91.9" class="st2" width="91.5" height="91.4"/>
	</g>
	<g>
		<g>
			<ellipse cx="232.6" cy="42.6" rx="3.9" ry="3.9"/>
			<path d="M247.5,42.6c0-2.2-1.8-3.9-3.9-3.9c-2.2,0-3.9,1.7-3.9,3.9c0,2.2,1.8,3.9,3.9,3.9C245.7,46.5,247.5,44.7,247.5,42.6z"/>
			<path d="M257.9,12.3h-57.2c-0.6,0-1.1,0.5-1.1,1.1v3.3v2.2v2.2v5.5c0,0.6,0.5,1.1,1.1,1.1h5.5h7.7c0.6,0,1.1-0.5,1.1-1.1v-4.4
				c0-0.6-0.5-1.1-1.1-1.1h-6.6c-0.6,0-1.1-0.5-1.1-1.1s0.5-1.1,1.1-1.1h8.8c0.6,0,1.1,0.5,1.1,1.1v1.1v5.5c0,0.6,0.5,1.1,1.1,1.1
				h5.5h7.7c0.6,0,1.1-0.5,1.1-1.1v-4.4c0-0.6-0.5-1.1-1.1-1.1h-6.6c-0.6,0-1.1-0.5-1.1-1.1s0.5-1.1,1.1-1.1h26.4
				c0.6,0,1.1,0.5,1.1,1.1s-0.5,1.1-1.1,1.1h-6.6c-0.6,0-1.1,0.5-1.1,1.1v4.4c0,0.6,0.5,1.1,1.1,1.1h7.7h6.6h0v-8.8v-5.5
				C259,12.8,258.5,12.3,257.9,12.3z"/>
			<path d="M257.9,29.9h-5.5h-46.2h-5.5c-0.6,0-1.1,0.5-1.1,1.1v5.5V53c0,0.6,0.5,1.1,1.1,1.1h4.4c0.6,0,1.1-0.5,1.1-1.1V37.6
				c0-0.6,0.5-1.1,1.1-1.1h44c0.6,0,1.1,0.5,1.1,1.1V53c0,0.6,0.5,1.1,1.1,1.1h4.4c0.6,0,1.1-0.5,1.1-1.1V36.5V31
				C259,30.4,258.5,29.9,257.9,29.9z"/>
			<path d="M213.9,54.1c0.6,0,1.1-0.5,1.1-1.1V39.8c0-0.6-0.5-1.1-1.1-1.1h-4.4c-0.6,0-1.1,0.5-1.1,1.1V53c0,0.6,0.5,1.1,1.1,1.1
				H213.9z"/>
			<path d="M222.7,38.7h-4.4c-0.6,0-1.1,0.5-1.1,1.1V53c0,0.6,0.5,1.1,1.1,1.1h1.1h4.4h25.3c0.6,0,1.1-0.5,1.1-1.1v-4.4
				c0-0.6-0.5-1.1-1.1-1.1h-24.2c-0.6,0-1.1-0.5-1.1-1.1v-6.6C223.8,39.2,223.3,38.7,222.7,38.7z"/>
			<path d="M257.9,56.3h-57.2c-0.6,0-1.1,0.5-1.1,1.1v4.4c0,0.6,0.5,1.1,1.1,1.1h15.4c0.6,0,1.1,0.5,1.1,1.1s-0.5,1.1-1.1,1.1h-9.9
				h-5.5c-0.6,0-1.1,0.5-1.1,1.1v5.5v7.7c0,0.6,0.5,1.1,1.1,1.1h4.4c0.6,0,1.1-0.5,1.1-1.1v-6.6c0-0.6,0.5-1.1,1.1-1.1h8.8
				c0.6,0,1.1,0.5,1.1,1.1v1.1v5.5c0,0.6,0.5,1.1,1.1,1.1h5.5h34.1c0.6,0,1.1-0.5,1.1-1.1v-4.4c0-0.6-0.5-1.1-1.1-1.1h-33
				c-0.6,0-1.1-0.5-1.1-1.1c0-0.6,0.5-1.1,1.1-1.1h27.5h6.6v-11v-3.3C259,56.7,258.5,56.3,257.9,56.3z M251.3,65h-26.4
				c-0.6,0-1.1-0.5-1.1-1.1s0.5-1.1,1.1-1.1h26.4c0.6,0,1.1,0.5,1.1,1.1S251.9,65,251.3,65z"/>
		</g>
		<rect x="183.5" y="0.5" class="st2" width="91.5" height="91.4"/>
	</g>
	<g>
		<path d="M161.2,131.9c1-1.1,2-2.2,3-3.3c-1.4-0.4-2.9-0.7-4.4-1c-4.6-0.8-9.4-1.1-14-1l0,0c-1.3-4.4-3-8.9-5.3-13
			c-0.7-1.3-1.5-2.6-2.3-3.8c-0.8,1.2-1.6,2.5-2.3,3.8c-2.2,4.2-3.9,8.6-5.3,13h0c-4.6-0.1-9.4,0.1-14,1c-1.5,0.3-2.9,0.6-4.4,1
			c0.9,1.2,1.9,2.3,3,3.3c3.3,3.4,7,6.4,10.8,9l0,0c-1.5,4.3-2.8,8.9-3.4,13.6c-0.2,1.5-0.3,3-0.4,4.4l0,0c1.4-0.5,2.7-1.1,4.1-1.8
			c4.2-2.1,8.2-4.6,11.9-7.4l0,0c3.7,2.8,7.7,5.4,11.9,7.4c1.3,0.6,2.7,1.2,4.1,1.8l0,0c-0.1-1.5-0.2-3-0.4-4.4
			c-0.6-4.7-1.9-9.3-3.4-13.6c0,0,0,0,0,0C154.3,138.3,158,135.3,161.2,131.9z M138.3,129.2c0.6,0,1.1,0.5,1.1,1.1
			c0,0.6-0.5,1.1-1.1,1.1c-0.6,0-1.1-0.5-1.1-1.1C137.2,129.7,137.7,129.2,138.3,129.2z M138.3,132.9c2.3,0,4.1,1.8,4.1,4.1
			c0,2.3-1.8,4.1-4.1,4.1c-2.3,0-4.1-1.8-4.1-4.1C134.2,134.7,136,132.9,138.3,132.9z M134.4,130.5c0.6,0,1.1,0.5,1.1,1.1
			s-0.5,1.1-1.1,1.1c-0.6,0-1.1-0.5-1.1-1.1S133.8,130.5,134.4,130.5z M132,140.2c-0.6,0-1.1-0.5-1.1-1.1s0.5-1.1,1.1-1.1
			c0.6,0,1.1,0.5,1.1,1.1S132.6,140.2,132,140.2z M132,136.1c-0.6,0-1.1-0.5-1.1-1.1s0.5-1.1,1.1-1.1c0.6,0,1.1,0.5,1.1,1.1
			S132.6,136.1,132,136.1z M134.4,143.5c-0.6,0-1.1-0.5-1.1-1.1c0-0.6,0.5-1.1,1.1-1.1s1.1,0.5,1.1,1.1
			C135.5,143,135,143.5,134.4,143.5z M138.3,144.8c-0.6,0-1.1-0.5-1.1-1.1c0-0.6,0.5-1.1,1.1-1.1c0.6,0,1.1,0.5,1.1,1.1
			C139.4,144.3,138.9,144.8,138.3,144.8z M142.2,143.5c-0.6,0-1.1-0.5-1.1-1.1c0-0.6,0.5-1.1,1.1-1.1c0.6,0,1.1,0.5,1.1,1.1
			C143.4,143,142.9,143.5,142.2,143.5z M142.2,132.8c-0.6,0-1.1-0.5-1.1-1.1s0.5-1.1,1.1-1.1c0.6,0,1.1,0.5,1.1,1.1
			S142.9,132.8,142.2,132.8z M144.6,140.2c-0.6,0-1.1-0.5-1.1-1.1s0.5-1.1,1.1-1.1c0.6,0,1.1,0.5,1.1,1.1S145.3,140.2,144.6,140.2z
			 M144.6,136.1c-0.6,0-1.1-0.5-1.1-1.1s0.5-1.1,1.1-1.1c0.6,0,1.1,0.5,1.1,1.1S145.3,136.1,144.6,136.1z"/>
		<ellipse class="st4" cx="138.6" cy="136.5" rx="31" ry="30.9"/>
		<ellipse class="st5" cx="138.6" cy="136.5" rx="35" ry="34.9"/>
	</g>
	<rect x="92" y="91.9" class="st2" width="91.5" height="91.4"/>
</g>
</svg>
